<?xml version="1.0" encoding="utf-8"?>
<!DOCTYPE svg PUBLIC "-//W3C//DTD SVG 1.1//EN" "http://www.w3.org/Graphics/SVG/1.1/DTD/svg11.dtd">
<svg xmlns="http://www.w3.org/2000/svg" xmlns:xlink="http://www.w3.org/1999/xlink" version="1.1" baseProfile="full" width="32" height="32" viewBox="0 0 32.00 32.00">
	<path fill="#000000" d="M11 5a2 2 0 0 0-2 2v6H4a2 2 0 0 0-2 2v2c0 1.1.9 2 2 2h5v6c0 1.1.9 2 2 2h2a2 2 0 0 0 2-2V7a2 2 0 0 0-2-2h-2zm8 0a2 2 0 0 0-2 2v18c0 1.1.9 2 2 2h2a2 2 0 0 0 2-2v-6h5a2 2 0 0 0 2-2v-2a2 2 0 0 0-2-2h-5V7a2 2 0 0 0-2-2h-2z"/>
</svg>