<?xml version="1.0" encoding="utf-8"?>
<!DOCTYPE svg PUBLIC "-//W3C//DTD SVG 1.1//EN" "http://www.w3.org/Graphics/SVG/1.1/DTD/svg11.dtd">
<svg xmlns="http://www.w3.org/2000/svg" xmlns:xlink="http://www.w3.org/1999/xlink" version="1.1" baseProfile="full" width="32" height="32" viewBox="0 0 32.00 32.00">
	<path fill="#000000" d="M9 4a2 2 0 0 0-2 2v1a2 2 0 0 0-2 2c0 1.1.9 2 2 2v3a2 2 0 0 0-2 2c0 1.1.9 2 2 2v3a2 2 0 0 0-2 2c0 1.1.9 2 2 2v1c0 1.1.9 2 2 2h14a2 2 0 0 0 2-2v-1a2 2 0 0 0 2-2c0-1.1-.9-2-2-2v-3a2 2 0 0 0 2-2c0-1.1-.9-2-2-2v-3a2 2 0 0 0 2-2c0-1.1-.9-2-2-2V6a2 2 0 0 0-2-2H9z"/>
</svg>