<?xml version="1.0" encoding="utf-8"?>
<!DOCTYPE svg PUBLIC "-//W3C//DTD SVG 1.1//EN" "http://www.w3.org/Graphics/SVG/1.1/DTD/svg11.dtd">
<svg xmlns="http://www.w3.org/2000/svg" xmlns:xlink="http://www.w3.org/1999/xlink" version="1.1" baseProfile="full" width="32" height="32" viewBox="0 0 32.00 32.00">
	<path fill="#000000" d="M14 2a6 6 0 0 0-6 6 6 6 0 0 0 6 6 6 6 0 0 0 6-6 6 6 0 0 0-6-6zm9 12c-.6 0-1 .9-1 2v8a3.5 3.5 0 0 1 0 .5 3.5 3.5 0 0 1-3.5 3.5 3.5 3.5 0 0 1-3.2-2 2 2 0 0 0 1.7-2v-9.7a7 7 0 0 1-3 .7 7 7 0 0 1-3-.7v9.8c0 1 1 1.9 2 1.9h.2a5.5 5.5 0 0 0 5.3 4 5.5 5.5 0 0 0 5.5-5.5 5.5 5.5 0 0 0 0-.3V16c0-1-.5-1.9-1-1.9zm-9 3a2 2 0 0 1 2 2 2 2 0 0 1-2 2 2 2 0 0 1-2-2 2 2 0 0 1 2-2z"/>
</svg>