<?xml version="1.0" encoding="utf-8"?>
<!DOCTYPE svg PUBLIC "-//W3C//DTD SVG 1.1//EN" "http://www.w3.org/Graphics/SVG/1.1/DTD/svg11.dtd">
<svg xmlns="http://www.w3.org/2000/svg" xmlns:xlink="http://www.w3.org/1999/xlink" version="1.1" baseProfile="full" width="32" height="32" viewBox="0 0 32.00 32.00">
  <path fill="#000000" d="M6 2a2 2 0 0 0-2 2v1c-1.1 0-2 .87-2 1.96v.08C2 8.13 2.9 9 4 9v3c-1.1 0-2 .88-2 1.97v.06c0 1.1.9 1.97 2 1.97v3c-1.1 0-2 .85-2 1.91v.18C2 22.15 2.9 23 4 23v1c0 1.1.9 2 2 2h3v-3c0-1.1.9-2 2-2h13v-.09c0-1.06-.9-1.91-2-1.91v-3c1.1 0 2-.88 2-1.97v-.06c0-1.1-.9-1.97-2-1.97V9c1.1 0 2-.87 2-1.96v-.08C24 5.87 23.1 5 22 5V4a2 2 0 0 0-2-2H6zm13.88 20.17c-.52 0-1 .09-1.43.27-.43.17-.8.43-1.1.77-.32.34-.56.76-.73 1.26-.17.5-.26 1.07-.26 1.72 0 .63.08 1.18.24 1.66a2.8 2.8 0 0 0 1.74 1.91 3.9 3.9 0 0 0 2.14.18 4.04 4.04 0 0 0 1.06-.37c.13-.07.21-.12.25-.17a.5.5 0 0 0 .14-.25 2.32 2.32 0 0 0 .04-.43 3.71 3.71 0 0 0-.05-.52c-.01-.05-.03-.08-.05-.1a.17.17 0 0 0-.1-.02c-.05 0-.12.03-.22.1a3.77 3.77 0 0 1-.86.42 2.38 2.38 0 0 1-1.52-.06c-.24-.1-.44-.26-.62-.47a2.3 2.3 0 0 1-.39-.8 4.42 4.42 0 0 1-.13-1.17c0-.4.04-.77.13-1.1.08-.32.2-.6.37-.82.17-.23.37-.4.6-.53a2.08 2.08 0 0 1 1.51-.08 2.91 2.91 0 0 1 .86.46c.1.07.17.1.23.1.04 0 .07-.01.1-.04a.27.27 0 0 0 .06-.1.77.77 0 0 0 .05-.2 3.22 3.22 0 0 0-.03-.77.5.5 0 0 0-.04-.14 1.18 1.18 0 0 0-.39-.32 3.39 3.39 0 0 0-1.6-.39zm-9.42.12a.48.48 0 0 0-.33.12c-.09.08-.13.2-.13.37v6.61c0 .17.04.3.13.38.09.07.2.1.33.1h2.01a3.86 3.86 0 0 0 1.53-.23c.22-.07.42-.17.6-.29a1.91 1.91 0 0 0 .78-1.01 2.27 2.27 0 0 0 0-1.43 1.7 1.7 0 0 0-.8-.92c-.18-.1-.38-.17-.6-.2a1.63 1.63 0 0 0 .78-.6 1.89 1.89 0 0 0 .28-.96c0-.34-.06-.62-.18-.86a1.54 1.54 0 0 0-.5-.6 2.26 2.26 0 0 0-.82-.36 5.05 5.05 0 0 0-1.18-.12h-1.9zm13.08 0a.48.48 0 0 0-.33.12c-.09.08-.13.2-.13.37v6.61c0 .17.04.3.13.38.09.07.2.1.33.1h1.8c.68 0 1.26-.07 1.74-.21a3 3 0 0 0 2.02-1.9c.19-.5.28-1.09.28-1.79 0-.6-.09-1.13-.25-1.58a2.97 2.97 0 0 0-1.93-1.85 5.35 5.35 0 0 0-1.72-.25h-1.94zM11.5 23.45h.78c.24 0 .43.02.57.06.14.05.26.1.36.2.1.07.16.17.2.29a1.2 1.2 0 0 1 0 .8.9.9 0 0 1-.51.54c-.14.05-.31.08-.54.08h-.86v-1.97zm13.1.05h.78c.48 0 .86.07 1.15.2.29.12.53.3.71.52.19.23.32.5.4.8a4.04 4.04 0 0 1-.02 2.15c-.09.33-.23.6-.43.83-.19.22-.43.38-.72.5-.29.1-.64.16-1.06.16h-.8V23.5zm-13.1 3.04h.92c.28 0 .5.03.68.08.18.05.32.12.43.22.12.09.2.2.26.35.06.13.1.29.1.47 0 .16-.04.31-.1.45a.9.9 0 0 1-.26.33c-.1.08-.23.15-.38.2-.14.04-.32.06-.54.06h-1.1v-2.16z"/>
</svg>
