<?xml version="1.0" encoding="utf-8"?>
<!DOCTYPE svg PUBLIC "-//W3C//DTD SVG 1.1//EN" "http://www.w3.org/Graphics/SVG/1.1/DTD/svg11.dtd">
<svg xmlns="http://www.w3.org/2000/svg" xmlns:xlink="http://www.w3.org/1999/xlink" version="1.1" baseProfile="full" width="32" height="32" viewBox="0 0 32.00 32.00">
  <path fill="#000000" d="M16.9 8a2 2 0 0 0-1.4.6L7 17H4a2 2 0 0 0-2 2v3c0 1.1.9 2 2 2h5.3a2 2 0 0 0 1.2-.6l10-9.9c.7-.8.7-2 0-2.8l-2.2-2.1A2 2 0 0 0 17 8zm5.1 9a2 2 0 0 0-2 2v3c0 1.1.9 2 2 2h6a2 2 0 0 0 2-2v-3a2 2 0 0 0-2-2z"/>
</svg>
