<?xml version="1.0" encoding="utf-8"?>
<!DOCTYPE svg PUBLIC "-//W3C//DTD SVG 1.1//EN" "http://www.w3.org/Graphics/SVG/1.1/DTD/svg11.dtd">
<svg xmlns="http://www.w3.org/2000/svg" xmlns:xlink="http://www.w3.org/1999/xlink" version="1.1" baseProfile="full" width="32" height="32" viewBox="0 0 32.00 32.00">
	<path fill="#000000" d="M6 2a2 2 0 0 0-2 2v1a2 2 0 0 0-2 2c0 1.1.9 2 2 2v3a2 2 0 0 0-2 2c0 1.1.9 2 2 2v3a2 2 0 0 0-2 2c0 1.1.9 2 2 2v1c0 1.1.9 2 2 2h6v-3c0-1.1.9-2 2-2h10c0-1.1-.9-2-2-2v-3a2 2 0 0 0 2-2c0-1.1-.9-2-2-2V9a2 2 0 0 0 2-2c0-1.1-.9-2-2-2V4a2 2 0 0 0-2-2H6zm15.2 20.1a3.6 3.6 0 0 0-1.4.3 3 3 0 0 0-.7.4l-.1.1v.1a1.2 1.2 0 0 0-.1.4 4.2 4.2 0 0 0 0 .6l.2.1h.2a3.3 3.3 0 0 1 .8-.5h1c.2 0 .3.1.3.2l.2.3v.8l-.1.5-.4.7-.7.7-1.3 1.4-.2.2v.2l-.1.3a2.6 2.6 0 0 0 0 .7v.2H23.9v-.3a2.1 2.1 0 0 0 0-.5v-.2l-.1-.1h-3.1l.9-1a15 15 0 0 0 1.7-2 2.8 2.8 0 0 0 .3-1.6l-.1-.8-.5-.6a2 2 0 0 0-.7-.4l-1-.2zm6 0a3.8 3.8 0 0 0-2 .7H25v.2l-.1.2a4 4 0 0 0 0 .7h.4a4.8 4.8 0 0 1 .8-.4 1.7 1.7 0 0 1 1 0l.4.1.2.3v.9l-.3.3-.4.3H25.8h-.1l-.1.1v.2a2.6 2.6 0 0 0 0 .6v.2H26.6l.7.1.5.3.3.3.1.5v.4l-.3.4-.5.2a2.8 2.8 0 0 1-1.8-.2 5.2 5.2 0 0 1-.5-.2H25v.5a6.2 6.2 0 0 0 0 .5v.2l.3.1.4.2a4.2 4.2 0 0 0 1.4.2c.4 0 .8 0 1.1-.2.4 0 .7-.2 1-.4a2 2 0 0 0 .8-1.8 1.7 1.7 0 0 0-1-1.5l-.7-.2.6-.3a1.5 1.5 0 0 0 .7-1 2.3 2.3 0 0 0-.1-1.4l-.5-.5a2 2 0 0 0-.7-.4l-1-.2zm-11.7.1a6.2 6.2 0 0 0-.6 0v.1l-1.7 1-.1.1V23.7a3.6 3.6 0 0 0 0 .6v.2H13.4l1.3-.8v5h-1.5l-.1.1v.2a2.8 2.8 0 0 0 0 .6v.2H17.6l.1-.2a2 2 0 0 0 0-.8l-.2-.1h-1.2v-6.3l-.1-.1H15.5z"/>
</svg>